<?xml version="1.0" standalone="no"?>
<!DOCTYPE svg PUBLIC "-//W3C//DTD SVG 20010904//EN"
 "http://www.w3.org/TR/2001/REC-SVG-20010904/DTD/svg10.dtd">
<svg version="1.0" xmlns="http://www.w3.org/2000/svg"
 width="280.000000pt" height="280.000000pt" viewBox="0 0 280.000000 280.000000"
 preserveAspectRatio="xMidYMid meet">
<metadata>
Created by potrace 1.11, written by Peter Selinger 2001-2013
</metadata>
<g transform="translate(0.000000,280.000000) scale(0.100000,-0.100000)"
fill="#000000" stroke="none">
<path d="M1180 2769 c-219 -110 -526 -567 -787 -1174 -101 -233 -197 -528
-219 -669 -3 -21 -8 -48 -11 -60 -13 -51 -12 -273 2 -330 28 -117 93 -215 175
-263 68 -40 489 -189 588 -208 12 -2 66 -16 119 -31 54 -15 120 -29 146 -32
121 -11 257 79 365 244 26 39 105 189 177 332 l129 261 332 3 332 3 28 25 c14
14 38 50 52 80 23 49 26 69 28 190 7 449 -182 1020 -454 1365 -104 133 -243
252 -330 282 -22 8 -130 12 -321 13 l-287 1 -64 -32z m523 -299 c70 -107 168
-318 182 -392 3 -11 9 -35 15 -53 6 -18 12 -41 15 -51 2 -10 10 -50 19 -89 52
-244 54 -662 3 -763 l-12 -24 -215 -2 c-211 -2 -216 -2 -265 -28 -97 -51 -158
-127 -310 -386 -72 -122 -186 -262 -213 -262 -23 0 -24 288 -2 430 7 41 14 86
15 100 3 20 35 165 70 317 11 46 76 263 115 382 103 316 272 690 396 878 l67
102 39 -47 c21 -26 58 -76 81 -112z"/>
</g>
</svg>
