<svg xmlns="http://www.w3.org/2000/svg" viewBox="0 0 533.5 85.56"><title>Merck</title><path d="M456.2 83.27a18.55 18.55 0 0 0 13.31-5.74c.28-.28 2.61-2.37 5.5-5.5a11.83 11.83 0 0 1 6.51-3.13H486a35 35 0 0 1 7.84 2.37l23 9.4s5.75 2.61 10.45 2.61h3.41a1.79 1.79 0 0 0 1.81-1.85v-8.6A15.28 15.28 0 0 0 523.37 59l-5.23-2.09a33.75 33.75 0 0 1-11-6.79s-4.7-5.47.77-10.69l20.38-20.65a15.46 15.46 0 0 0 4.18-10.2A8.79 8.79 0 0 0 532 5.7a6.15 6.15 0 0 0-1.57-2.61A7.2 7.2 0 0 0 525.18 1h-3.38a19 19 0 0 0-13.34 5.74L491.22 24l-18.57 18.8V13a12.18 12.18 0 0 0-12.26-12h-5.23c-1.32 0-3.41 0-4.18.52-.8.24-.8 1.29-.8 2.09v77.81a1.81 1.81 0 0 0 1.82 1.85zM359 73.35c-.24 0-4.42-1.32-13.06-8.11-4.42-3.38-7.56-6-9.13-7 1.57-1 6.79-3.13 11.5-8.63a19 19 0 0 0 4.42-12.78 23.84 23.84 0 0 0-4.18-13.86 41 41 0 0 0-11-11.49 61 61 0 0 0-15.4-7.59A45.66 45.66 0 0 0 305.68 1h-33.45a1.79 1.79 0 0 0-1.85 1.81v77.85a2.15 2.15 0 0 0 .8 2.09c1 .52 3.38.52 4.7.52a14.38 14.38 0 0 0 5.75-.8 13.77 13.77 0 0 0 7-5.22c3.17-4.18 3.94-8.88 3.94-13.82V29.72a7.41 7.41 0 0 1 .28-2.33 6.7 6.7 0 0 1 .77-1.57c2.37-4.46 11-6.27 20.38-3.93 12.54 3.13 16.2 11.77 14.91 15.42-1.57 3.9-6 6.27-11.5 6.27a23.22 23.22 0 0 1-8.36-1.32s-1.85-.52-3.14-1c-.8 0-2.09-.77-2.89-.77-1 0-1.57.77-1.57 2.33v8.88a10 10 0 0 0 3.18 7.3l27.17 21.38a14.8 14.8 0 0 0 8.64 2.89h17.77c1.29 0 1.81-.8 1.81-2.37v-5.46a2.31 2.31 0 0 0-1-2.09zM250.29 61.86h-23.8a25 25 0 0 1-9.65-2.09c-2.37-1-6.27-4.46-7.59-5.74a24.61 24.61 0 0 1-4.95-8.36 25.72 25.72 0 0 1-2.09-9.92c0-4.18 1.29-7.59 3.9-9.92.28-.28 1.32-1 2.37-1.85a12.18 12.18 0 0 1 3.66-1.29 21.41 21.41 0 0 1 4.42-.52 22 22 0 0 1 4.7.52 26.05 26.05 0 0 1 8.12 3.13 42.86 42.86 0 0 1 10.17 9.4h-24.8c-1.57 0-2.37.77-2.37 2.09a12.4 12.4 0 0 0 1.62 6.27A17.49 17.49 0 0 0 229.39 53h23.24c3.94 0 6.79-1 8.36-3.13a11.27 11.27 0 0 0 2.09-7.07 30.38 30.38 0 0 0-3.9-14.34A45.2 45.2 0 0 0 249 14.82a51.45 51.45 0 0 0-14.67-9.92A42.73 42.73 0 0 0 216.57 1h-34.25a1.74 1.74 0 0 0-1.57 1.81v33.7a41.28 41.28 0 0 0 3.66 18 45.35 45.35 0 0 0 10 14.87A52.3 52.3 0 0 0 209 79.61a47.55 47.55 0 0 0 18 3.66h34.24a1.74 1.74 0 0 0 1.81-1.57v-7.06a13.81 13.81 0 0 0-3.38-9.4 13.83 13.83 0 0 0-9.41-3.38zM173.2 13a12.21 12.21 0 0 0-12.3-12h-12.79a3.49 3.49 0 0 0-1.57.52l-25.88 24.3C112.06 34.18 100 38.6 87 38.6c-13.62 0-25.88-4.94-34.77-13.82 0 0-18.81-17.79-19.09-18A20.92 20.92 0 0 0 18.77 1H3.33A2.33 2.33 0 0 0 1 3.33v67.93a12 12 0 0 0 12 12h8.1a2.35 2.35 0 0 0 2.37-2.37v-24c0-6.51 5.23-11.73 11.22-11.73 11.77 0 19.86 9.92 27.45 16.71 9.12 8.07 16.2 15.9 24.86 15.9 8.88 0 15.92-7.83 25.08-15.91 7.56-6.79 15.68-16.71 27.17-16.71a11.59 11.59 0 0 1 11.5 11.49v14.62a12 12 0 0 0 12 12h8.08a2.35 2.35 0 0 0 2.37-2.37V13zm267.57 35.8h-12.26c-4.7 0-7.59 2.09-9.16 6a11.57 11.57 0 0 1-4.18 6.27 11.36 11.36 0 0 1-7.56 2.37 17.38 17.38 0 0 1-8.88-2.61 29.05 29.05 0 0 1-7.84-6.27 32.56 32.56 0 0 1-6-8.88 26.84 26.84 0 0 1-2.09-9.92c0-3.93 1-7.31 3.66-9.68a11.86 11.86 0 0 1 9.16-3.9c4.42 0 8.6 1.57 12.78 4.7a8.1 8.1 0 0 0 5.23 1.81c2.09 0 3.94-1 6.27-3.13l8.36-8.36c.52-.52.8-1 .52-1.57 0-.28-.52-.8-1-1.32a51.48 51.48 0 0 0-14.88-9.92A43.64 43.64 0 0 0 395.59 1h-33.48a1.84 1.84 0 0 0-1.81 2.09v33.42a43.28 43.28 0 0 0 3.9 18.28 52.48 52.48 0 0 0 10.45 15.42 57.68 57.68 0 0 0 15.43 10.44 40.85 40.85 0 0 0 17.52 3.9 33 33 0 0 0 13.59-2.61 33.45 33.45 0 0 0 11-6.79 31.21 31.21 0 0 0 7.32-10.69 37.81 37.81 0 0 0 3.14-13.33c.24-1.57-.52-2.33-1.85-2.33z" fill="#007bbc"/></svg>
