<svg width="64" height="64" viewBox="0 0 64 64" fill="none" xmlns="http://www.w3.org/2000/svg">
<path d="M31.9984 57.6004C46.1369 57.6004 57.5984 46.1389 57.5984 32.0004C57.5984 17.8619 46.1369 6.40039 31.9984 6.40039C17.8599 6.40039 6.39844 17.8619 6.39844 32.0004C6.39844 46.1389 17.8599 57.6004 31.9984 57.6004Z" stroke="#00629F" stroke-linecap="round" stroke-linejoin="round"/>
<path d="M31.9802 57.6004C38.7692 57.6004 44.2728 46.1389 44.2728 32.0004C44.2728 17.8619 38.7692 6.40039 31.9802 6.40039C25.1911 6.40039 19.6875 17.8619 19.6875 32.0004C19.6875 46.1389 25.1911 57.6004 31.9802 57.6004Z" stroke="#00629F" stroke-linecap="round" stroke-linejoin="round"/>
<path d="M32 57.6013V6.41797" stroke="#00629F" stroke-linecap="round" stroke-linejoin="round"/>
<path d="M6.39844 31.4023H57.5568" stroke="#00629F" stroke-linecap="round" stroke-linejoin="round"/>
<path d="M12.1094 48.1279C12.1094 48.1279 19.3286 43.1875 30.6814 43.1875C42.0343 43.1875 52.0397 47.9199 52.0397 47.9199" stroke="#00629F" stroke-linecap="round" stroke-linejoin="round"/>
<path d="M12.1953 15.7812C12.1953 15.7812 21.8764 21.3204 33.4538 20.6467C45.0312 19.9814 51.8013 15.7812 51.8013 15.7812" stroke="#00629F" stroke-linecap="round" stroke-linejoin="round"/>
</svg>
