<svg width="64" height="64" viewBox="0 0 64 64" fill="none" xmlns="http://www.w3.org/2000/svg">
<path d="M15.5984 10.3984L6.39844 19.5984" stroke="#00619E" stroke-miterlimit="10" stroke-linecap="round" stroke-linejoin="round"/>
<path d="M44.5984 49.0806V53.0056C44.5984 54.8826 43.0684 56.3992 41.1795 56.3992H9.81739C7.92844 56.3992 6.39844 54.8826 6.39844 53.0056V19.5455H17.1927C18.1011 19.5455 18.837 18.815 18.837 17.9134V7.19922H41.1775C43.0664 7.19922 44.5964 8.71787 44.5964 10.5928V22.5052" stroke="#00619E" stroke-miterlimit="10" stroke-linecap="round" stroke-linejoin="round"/>
<path d="M13.2031 28.8008H28.2031" stroke="#00619E" stroke-miterlimit="10" stroke-linecap="round" stroke-linejoin="round"/>
<path d="M29 18H37" stroke="#00619E" stroke-miterlimit="10" stroke-linecap="round" stroke-linejoin="round"/>
<path d="M13.2031 35.6016H25.0031" stroke="#00619E" stroke-miterlimit="10" stroke-linecap="round" stroke-linejoin="round"/>
<path d="M13.2031 42.6016H27.0031" stroke="#00619E" stroke-miterlimit="10" stroke-linecap="round" stroke-linejoin="round"/>
<path d="M13.2031 49.6016H35.4031" stroke="#00619E" stroke-miterlimit="10" stroke-linecap="round" stroke-linejoin="round"/>
<path d="M40.3984 45.8008C45.9213 45.8008 50.3984 41.3236 50.3984 35.8008C50.3984 30.2779 45.9213 25.8008 40.3984 25.8008C34.8756 25.8008 30.3984 30.2779 30.3984 35.8008C30.3984 41.3236 34.8756 45.8008 40.3984 45.8008Z" stroke="#00619E" stroke-miterlimit="10" stroke-linecap="round" stroke-linejoin="round"/>
<path d="M47.6016 42.8008L57.6016 52.8008" stroke="#00619E" stroke-miterlimit="10" stroke-linecap="round" stroke-linejoin="round"/>
</svg>
