<svg width="80" height="80" viewBox="0 0 80 80" fill="none" xmlns="http://www.w3.org/2000/svg">
<path d="M50.1345 11.9023L46.5 16.8306L50.1345 21.7588" stroke="#00619E" stroke-miterlimit="10"/>
<path d="M46.5 16.832H65.747C67.1722 16.832 68.3253 17.9874 68.3253 19.4103V30.4152" stroke="#00619E" stroke-miterlimit="10"/>
<path d="M29.8672 68.0423L33.5017 63.1141L29.8672 58.1836" stroke="#00619E" stroke-miterlimit="10"/>
<path d="M33.5011 63.1144H14.254C12.8289 63.1144 11.6758 61.9591 11.6758 60.5362V49.5312" stroke="#00619E" stroke-miterlimit="10"/>
<path d="M47.6367 69.9444H71.9988V67.0871V52.0142V46.7654L63.9365 38.7031H47.6367V69.9444Z" stroke="#00619E" stroke-miterlimit="10"/>
<path d="M68.1693 46.7654H63.9375V38.7031" stroke="#00619E" stroke-miterlimit="10"/>
<path d="M51.9922 60.1406H67.6486" stroke="#00619E" stroke-miterlimit="10"/>
<path d="M51.9922 64.7773H67.6486" stroke="#00619E" stroke-miterlimit="10"/>
<path d="M8 41.2413H32.3621V38.3816V23.3087V18.0623L24.2975 10H8V41.2413Z" stroke="#00619E" stroke-miterlimit="10"/>
<path d="M28.531 18.0623H24.2969V10" stroke="#00619E" stroke-miterlimit="10"/>
<path d="M12.3516 31.4375H28.008" stroke="#00619E" stroke-miterlimit="10"/>
<path d="M12.3516 36.0703H28.008" stroke="#00619E" stroke-miterlimit="10"/>
</svg>
