<svg width="64" height="64" viewBox="0 0 64 64" fill="none" xmlns="http://www.w3.org/2000/svg">
<path d="M33.7969 20.4152L38.5585 13.7176L44.3752 24.8715L54.6833 7.20312L49.7473 9.05194" stroke="#00629F" stroke-linecap="round" stroke-linejoin="round"/>
<path d="M54.6875 7.20312L55.3939 11.1188" stroke="#00629F" stroke-linecap="round" stroke-linejoin="round"/>
<path d="M51.5078 38.04V20.0664H57.595V51.5224H51.5078V38.04Z" stroke="#00629F" stroke-linecap="round" stroke-linejoin="round"/>
<path d="M47.7296 30.3047H42V51.5225H47.7296V30.3047Z" stroke="#00629F" stroke-linecap="round" stroke-linejoin="round"/>
<path d="M32.1472 35.7971V24.4688H37.8767V51.5208H31.1094" stroke="#00629F" stroke-linecap="round" stroke-linejoin="round"/>
<path d="M20.2384 56.5979C27.882 56.5979 34.0784 50.4015 34.0784 42.7579C34.0784 35.1143 27.882 28.918 20.2384 28.918C12.5948 28.918 6.39844 35.1143 6.39844 42.7579C6.39844 50.4015 12.5948 56.5979 20.2384 56.5979Z" stroke="#00629F" stroke-linecap="round" stroke-linejoin="round"/>
<path d="M31.1094 51.5195H57.5945" stroke="#00629F" stroke-linecap="round" stroke-linejoin="round"/>
<path d="M20.2422 28.918V32.1883" stroke="#00629F" stroke-linecap="round" stroke-linejoin="round"/>
<path d="M6.53125 42.1797H9.9847" stroke="#00629F" stroke-linecap="round" stroke-linejoin="round"/>
<path d="M20.2422 53.1328V56.5863" stroke="#00629F" stroke-linecap="round" stroke-linejoin="round"/>
<path d="M30.2344 42.4258H33.6965" stroke="#00629F" stroke-linecap="round" stroke-linejoin="round"/>
<path d="M20.2422 35.2227V42.5918" stroke="#00629F" stroke-linecap="round" stroke-linejoin="round"/>
<path d="M20.2422 42.5898H26.0677" stroke="#00629F" stroke-linecap="round" stroke-linejoin="round"/>
</svg>
