<svg width="64" height="64" viewBox="0 0 64 64" fill="none" xmlns="http://www.w3.org/2000/svg">
<path d="M15.5859 29.705V34.2925L19.4607 34.8654C19.7865 36.2933 20.3484 37.6315 21.105 38.8342L18.7697 41.9807L22.0147 45.2257L25.1612 42.8904C26.3638 43.6469 27.7021 44.2089 29.13 44.5347L29.7028 48.4094H34.2904L34.8633 44.5347C36.2912 44.2089 37.6294 43.6469 38.832 42.8904L41.9786 45.2257L45.2235 41.9807L42.8882 38.8342C43.6448 37.6315 44.2068 36.2933 44.5326 34.8654L48.4095 34.2925V29.705L44.5326 29.1321C44.2068 27.7042 43.6448 26.366 42.8882 25.1634L45.2235 22.0168L41.9786 18.7719L38.832 21.1072C37.6294 20.3506 36.2912 19.7886 34.8633 19.4628L34.2904 15.5859H29.7028L29.13 19.4628C27.7021 19.7886 26.3638 20.3506 25.1612 21.1072L22.0147 18.7719L18.7697 22.0168L21.105 25.1634C20.3484 26.366 19.7865 27.7042 19.4607 29.1321L15.5859 29.705Z" stroke="#00619E" stroke-linecap="round" stroke-linejoin="round"/>
<path d="M51.5312 39.375L52.419 44.6645L57.597 42.4691" stroke="#00619E" stroke-linecap="round" stroke-linejoin="round"/>
<path d="M53.5786 21.4648C54.4226 23.2032 55.0721 25.0706 55.4875 27.0473C56.8148 33.3448 55.5531 39.5876 52.4219 44.665" stroke="#00619E" stroke-linecap="round" stroke-linejoin="round"/>
<path d="M24.6254 51.5352L19.3359 52.4229L21.5335 57.6009" stroke="#00619E" stroke-linecap="round" stroke-linejoin="round"/>
<path d="M42.7088 53.4894C40.9223 54.375 38.996 55.0529 36.9536 55.4836C30.6561 56.8109 24.4133 55.5492 19.3359 52.418" stroke="#00619E" stroke-linecap="round" stroke-linejoin="round"/>
<path d="M12.4663 24.6215L11.5786 19.332L6.39844 21.5296" stroke="#00619E" stroke-linecap="round" stroke-linejoin="round"/>
<path d="M10.4549 42.5934C9.59551 40.8375 8.93736 38.9483 8.51534 36.9497C7.18806 30.6522 8.44975 24.4094 11.581 19.332" stroke="#00619E" stroke-linecap="round" stroke-linejoin="round"/>
<path d="M39.375 12.4663L44.6623 11.5786L42.4669 6.39844" stroke="#00619E" stroke-linecap="round" stroke-linejoin="round"/>
<path d="M21.4922 10.4133C23.224 9.57367 25.0849 8.9308 27.0506 8.51534C33.3481 7.18806 39.5909 8.44975 44.6683 11.581" stroke="#00619E" stroke-linecap="round" stroke-linejoin="round"/>
<path d="M32.0019 40.5975C36.7492 40.5975 40.5976 36.7491 40.5976 32.0019C40.5976 27.2546 36.7492 23.4062 32.0019 23.4062C27.2547 23.4062 23.4062 27.2546 23.4062 32.0019C23.4062 36.7491 27.2547 40.5975 32.0019 40.5975Z" stroke="#00619E" stroke-linecap="round" stroke-linejoin="round"/>
<path d="M52.1641 19.1361C53.625 17.7739 53.7049 15.4853 52.3426 14.0245C50.9804 12.5636 48.6918 12.4837 47.231 13.846C45.7701 15.2082 45.6903 17.4967 47.0525 18.9576C48.4148 20.4184 50.7033 20.4984 52.1641 19.1361Z" stroke="#00619E" stroke-linecap="round" stroke-linejoin="round"/>
<path d="M50.0236 52.7923C51.4844 51.4301 51.5643 49.1415 50.202 47.6807C48.8398 46.2199 46.5512 46.1399 45.0904 47.5022C43.6296 48.8644 43.5496 51.153 44.9119 52.6138C46.2741 54.0747 48.5627 54.1546 50.0236 52.7923Z" stroke="#00619E" stroke-linecap="round" stroke-linejoin="round"/>
<path d="M15.3578 51.4937C17.2677 50.9087 18.3417 48.8862 17.7567 46.9764C17.1717 45.0665 15.1492 43.9925 13.2394 44.5775C11.3295 45.1625 10.2555 47.185 10.8405 49.0948C11.4255 51.0047 13.448 52.0787 15.3578 51.4937Z" stroke="#00619E" stroke-linecap="round" stroke-linejoin="round"/>
<path d="M18.5079 16.9915C19.9688 15.6293 20.0487 13.3407 18.6864 11.8799C17.3242 10.419 15.0356 10.3391 13.5748 11.7014C12.1139 13.0636 12.034 15.3522 13.3963 16.813C14.7585 18.2739 17.0471 18.3538 18.5079 16.9915Z" stroke="#00619E" stroke-linecap="round" stroke-linejoin="round"/>
</svg>
