<svg width="755" height="293" viewBox="0 0 755 293" fill="none" xmlns="http://www.w3.org/2000/svg">
<path d="M21.6321 168.74C32.4746 168.74 41.2642 159.95 41.2642 149.108C41.2642 138.265 32.4746 129.476 21.6321 129.476C10.7896 129.476 2 138.265 2 149.108C2 159.95 10.7896 168.74 21.6321 168.74Z" fill="#8AC4E8" stroke="#8AC4E8" stroke-width="2.15737" stroke-miterlimit="10"/>
<path d="M269.043 168.561C279.886 168.561 288.675 159.771 288.675 148.929C288.675 138.086 279.886 129.297 269.043 129.297C258.201 129.297 249.411 138.086 249.411 148.929C249.411 159.771 258.201 168.561 269.043 168.561Z" fill="#8AC4E8" stroke="#8AC4E8" stroke-width="2.15737" stroke-miterlimit="10"/>
<path d="M145.336 291.916C156.178 291.916 164.968 283.126 164.968 272.284C164.968 261.441 156.178 252.652 145.336 252.652C134.493 252.652 125.704 261.441 125.704 272.284C125.704 283.126 134.493 291.916 145.336 291.916Z" fill="#8AC4E8" stroke="#8AC4E8" stroke-width="2.15737" stroke-miterlimit="10"/>
<path d="M145.624 41.2642C156.466 41.2642 165.256 32.4746 165.256 21.6321C165.256 10.7896 156.466 2 145.624 2C134.781 2 125.991 10.7896 125.991 21.6321C125.991 32.4746 134.781 41.2642 145.624 41.2642Z" fill="#8AC4E8" stroke="#8AC4E8" stroke-width="2.15737" stroke-miterlimit="10"/>
<path d="M79.6332 227.21C94.761 227.21 107.025 214.946 107.025 199.818C107.025 184.69 94.761 172.427 79.6332 172.427C64.5053 172.427 52.2417 184.69 52.2417 199.818C52.2417 214.946 64.5053 227.21 79.6332 227.21Z" fill="#7DD4E8" stroke="#7DD4E8" stroke-width="2.15737" stroke-miterlimit="10"/>
<path d="M211.823 227.21C226.95 227.21 239.214 214.946 239.214 199.818C239.214 184.69 226.95 172.427 211.823 172.427C196.695 172.427 184.431 184.69 184.431 199.818C184.431 214.946 196.695 227.21 211.823 227.21Z" fill="#7DD4E8" stroke="#7DD4E8" stroke-width="2.15737" stroke-miterlimit="10"/>
<path d="M201.489 115.032C206.799 115.032 211.103 110.728 211.103 105.418C211.103 100.108 206.799 95.803 201.489 95.803C196.179 95.803 191.874 100.108 191.874 105.418C191.874 110.728 196.179 115.032 201.489 115.032Z" fill="#96B1D8" stroke="#96B1D8" stroke-width="2.15737" stroke-miterlimit="10"/>
<path d="M92.2142 113.796C97.5242 113.796 101.829 109.491 101.829 104.181C101.829 98.8713 97.5242 94.5667 92.2142 94.5667C86.9041 94.5667 82.5995 98.8713 82.5995 104.181C82.5995 109.491 86.9041 113.796 92.2142 113.796Z" fill="#96B1D8" stroke="#96B1D8" stroke-width="2.15737" stroke-miterlimit="10"/>
<path d="M191.851 110.779L100.711 183.146L102.947 185.961L194.087 113.595L191.851 110.779Z" fill="url(#paint0_linear_1_994)"/>
<path d="M101.479 109.887L99.243 112.703L189.769 184.582L192.005 181.766L101.479 109.887Z" fill="url(#paint1_linear_1_994)"/>
<path d="M147.198 42.8831H143.603V251.03H147.198V42.8831Z" fill="#8AC4E8"/>
<path d="M249.411 147.31H41.2642V150.905H249.411V147.31Z" fill="#8AC4E8"/>
<path d="M145.336 168.561C156.178 168.561 164.968 159.771 164.968 148.929C164.968 138.086 156.178 129.297 145.336 129.297C134.493 129.297 125.704 138.086 125.704 148.929C125.704 159.771 134.493 168.561 145.336 168.561Z" fill="white"/>
<path d="M145.336 129.296C156.177 129.296 164.968 138.084 164.968 148.928C164.968 159.773 156.18 168.561 145.336 168.561C134.492 168.561 125.704 159.773 125.704 148.928C125.704 138.084 134.492 129.296 145.336 129.296ZM145.336 125.701C132.528 125.701 122.108 136.121 122.108 148.928C122.108 161.736 132.528 172.156 145.336 172.156C158.144 172.156 168.564 161.736 168.564 148.928C168.564 136.121 158.144 125.701 145.336 125.701Z" fill="#8AC4E8"/>
<path d="M408.031 274.292V232.096H352.249V274.292H346.243V184.896H352.249V226.805H408.031V184.896H414.038V274.292H408.031Z" fill="white"/>
<path d="M467.531 275.721C446.936 275.721 435.351 262.989 435.351 241.967V184.9H441.214V241.54C441.214 259.419 450.223 270.433 467.675 270.433C485.127 270.433 494.136 259.419 494.136 240.398V184.904H499.999V240.542C499.999 261.995 488.701 275.729 467.531 275.729V275.721Z" fill="white"/>
<path d="M579.81 249.835C579.81 263.853 570.94 274.292 548.772 274.292H521.308V184.896H547.338C568.652 184.896 576.946 194.481 576.946 207.779C576.946 216.074 571.655 226.517 557.925 228.949C572.37 230.81 579.81 239.105 579.81 249.831V249.835ZM547.055 190.335H527.319V226.809H546.2C560.217 226.809 570.944 220.658 570.944 208.215C570.944 197.488 563.935 190.335 547.059 190.335H547.055ZM546.196 232.244H527.315V268.861H548.912C567.218 268.861 573.799 260.85 573.799 249.696C573.799 239.252 565.645 232.248 546.196 232.248V232.244Z" fill="white"/>
<path d="M625.152 274.292V270.035L633.735 261.201C659.553 235.886 670.923 222.763 670.923 206.813C670.923 196.194 666.418 185.751 650.683 185.751C641.885 185.751 634.949 190.328 630.983 193.762L628.263 189.113C634.27 183.642 642.425 179.745 652.041 179.745C671.35 179.745 677.859 194.369 677.859 205.383C677.859 223.69 664.629 238.386 641.35 261.381L634.769 268.21V268.497H680.431V274.292H625.148H625.152Z" fill="white"/>
<path d="M734.176 274.292V246.972H689.8V242.395L735.107 181.322H740.722V241.253H754.955V246.976H740.722V274.296H734.18L734.176 274.292ZM734.176 241.253V203.638C734.176 199.241 734.248 194.948 734.568 190.767L734.104 190.659C731.245 195.878 729.132 199.025 726.916 202.388L697.915 240.969V241.257H734.172L734.176 241.253Z" fill="white"/>
<path d="M449.029 154.673L437.959 124.242H376.954L365.879 154.673H346.69L397.277 18.9998H417.628L468.214 154.673H449.025H449.029ZM383.084 107.381H431.825L407.456 40.4012L383.088 107.381H383.084Z" fill="white"/>
<path d="M492.056 113.97C493.733 122.628 497.706 129.349 503.976 134.126C510.242 138.906 517.962 141.298 527.139 141.298C539.93 141.298 549.235 136.582 555.05 127.149L569.395 135.288C559.962 149.892 545.749 157.188 526.756 157.188C511.376 157.188 498.877 152.376 489.252 142.748C479.624 133.123 474.811 120.943 474.811 106.215C474.811 91.4866 479.528 79.4661 488.961 69.7777C498.389 60.0854 510.602 55.2412 525.593 55.2412C539.806 55.2412 551.4 60.2491 560.385 70.2609C569.363 80.2768 573.855 92.3253 573.855 106.407C573.855 108.863 573.66 111.382 573.272 113.966H492.064L492.056 113.97ZM525.585 71.1355C516.54 71.1355 509.044 73.6874 503.102 78.7912C497.155 83.8989 493.473 90.7119 492.056 99.2381H556.791C555.369 90.0649 551.751 83.0882 545.937 78.3039C540.122 73.5237 533.337 71.1315 525.585 71.1315V71.1355Z" fill="white"/>
<path d="M610.089 74.043C615.644 62.0264 625.724 56.0161 640.324 56.0161V73.6556C632.053 73.2682 624.945 75.4687 619.002 80.245C613.056 85.0252 610.085 92.7168 610.085 103.308V154.669H593.224V57.7573H610.085V74.039L610.089 74.043Z" fill="white"/>
<path d="M731.808 57.7615H748.669V154.673H731.808V138.004C723.406 150.795 711.197 157.193 695.175 157.193C681.609 157.193 670.044 152.249 660.483 142.365C650.919 132.481 646.139 120.432 646.139 106.219C646.139 92.0062 650.919 79.9577 660.483 70.0736C670.044 60.1896 681.609 55.2456 695.175 55.2456C711.197 55.2456 723.406 61.6433 731.808 74.4346V57.7655V57.7615ZM697.308 140.911C707.124 140.911 715.335 137.585 721.924 130.931C728.514 124.278 731.808 116.039 731.808 106.219C731.808 96.3991 728.514 88.1644 721.924 81.5072C715.335 74.8539 707.128 71.5273 697.308 71.5273C687.488 71.5273 679.477 74.8539 672.887 81.5072C666.298 88.1644 663.003 96.3991 663.003 106.219C663.003 116.039 666.298 124.278 672.887 130.931C679.477 137.589 687.616 140.911 697.308 140.911Z" fill="white"/>
<defs>
<linearGradient id="paint0_linear_1_994" x1="100.716" y1="148.366" x2="194.095" y2="148.366" gradientUnits="userSpaceOnUse">
<stop stop-color="#7DD4E8"/>
<stop offset="1" stop-color="#96B1D8"/>
</linearGradient>
<linearGradient id="paint1_linear_1_994" x1="99.2361" y1="147.244" x2="191.989" y2="147.244" gradientUnits="userSpaceOnUse">
<stop stop-color="#96B1D8"/>
<stop offset="1" stop-color="#7DD4E8"/>
</linearGradient>
</defs>
</svg>
